<mxfile host="app.diagrams.net" modified="2024-05-21T01:56:42.349Z" agent="Mozilla/5.0 (Windows NT 10.0; Win64; x64) AppleWebKit/537.36 (KHTML, like Gecko) Chrome/125.0.0.0 Safari/537.36" etag="cIQiFqvKmQQrrkxaRXCy" version="24.1.0" type="device">
  <diagram name="페이지-1" id="leAITxueJEmx5FDmGfvy">
    <mxGraphModel dx="2769" dy="878" grid="0" gridSize="10" guides="1" tooltips="1" connect="1" arrows="1" fold="1" page="0" pageScale="1" pageWidth="827" pageHeight="1169" math="0" shadow="0">
      <root>
        <mxCell id="0" />
        <mxCell id="1" parent="0" />
        <mxCell id="mjYtHAVKHYV-V9NppbTY-1" value="Actor" style="shape=umlActor;verticalLabelPosition=bottom;verticalAlign=top;html=1;outlineConnect=0;" vertex="1" parent="1">
          <mxGeometry x="114.5" y="718" width="30" height="60" as="geometry" />
        </mxCell>
        <mxCell id="mjYtHAVKHYV-V9NppbTY-13" value="품목" style="rounded=0;whiteSpace=wrap;html=1;" vertex="1" parent="1">
          <mxGeometry x="-179" y="562" width="105" height="45" as="geometry" />
        </mxCell>
        <mxCell id="mjYtHAVKHYV-V9NppbTY-14" value="유통기한" style="rounded=0;whiteSpace=wrap;html=1;" vertex="1" parent="1">
          <mxGeometry x="324" y="878" width="105" height="45" as="geometry" />
        </mxCell>
        <mxCell id="mjYtHAVKHYV-V9NppbTY-15" value="회원" style="rounded=0;whiteSpace=wrap;html=1;" vertex="1" parent="1">
          <mxGeometry x="-179" y="878" width="105" height="45" as="geometry" />
        </mxCell>
        <mxCell id="mjYtHAVKHYV-V9NppbTY-16" value="이전주문정보" style="rounded=0;whiteSpace=wrap;html=1;" vertex="1" parent="1">
          <mxGeometry x="324" y="562" width="105" height="45" as="geometry" />
        </mxCell>
        <mxCell id="mjYtHAVKHYV-V9NppbTY-17" value="회원아이디" style="ellipse;whiteSpace=wrap;html=1;" vertex="1" parent="1">
          <mxGeometry x="-352" y="376" width="98" height="58" as="geometry" />
        </mxCell>
        <mxCell id="mjYtHAVKHYV-V9NppbTY-18" value="품목명" style="ellipse;whiteSpace=wrap;html=1;" vertex="1" parent="1">
          <mxGeometry x="-352" y="466" width="98" height="58" as="geometry" />
        </mxCell>
        <mxCell id="mjYtHAVKHYV-V9NppbTY-19" value="재고량" style="ellipse;whiteSpace=wrap;html=1;" vertex="1" parent="1">
          <mxGeometry x="-352" y="557" width="98" height="58" as="geometry" />
        </mxCell>
        <mxCell id="mjYtHAVKHYV-V9NppbTY-20" value="유통기한 정보" style="ellipse;whiteSpace=wrap;html=1;" vertex="1" parent="1">
          <mxGeometry x="-352" y="648" width="98" height="58" as="geometry" />
        </mxCell>
        <mxCell id="mjYtHAVKHYV-V9NppbTY-21" value="품목명" style="ellipse;whiteSpace=wrap;html=1;" vertex="1" parent="1">
          <mxGeometry x="505" y="815.5" width="98" height="58" as="geometry" />
        </mxCell>
        <mxCell id="mjYtHAVKHYV-V9NppbTY-22" value="유통기한 정보" style="ellipse;whiteSpace=wrap;html=1;" vertex="1" parent="1">
          <mxGeometry x="505" y="906.5" width="98" height="58" as="geometry" />
        </mxCell>
        <mxCell id="mjYtHAVKHYV-V9NppbTY-25" value="회원아이디" style="ellipse;whiteSpace=wrap;html=1;" vertex="1" parent="1">
          <mxGeometry x="-352" y="782" width="98" height="58" as="geometry" />
        </mxCell>
        <mxCell id="mjYtHAVKHYV-V9NppbTY-26" value="비밀번호" style="ellipse;whiteSpace=wrap;html=1;" vertex="1" parent="1">
          <mxGeometry x="-352" y="872" width="98" height="58" as="geometry" />
        </mxCell>
        <mxCell id="mjYtHAVKHYV-V9NppbTY-27" value="회원이름" style="ellipse;whiteSpace=wrap;html=1;" vertex="1" parent="1">
          <mxGeometry x="-352" y="963" width="98" height="58" as="geometry" />
        </mxCell>
        <mxCell id="mjYtHAVKHYV-V9NppbTY-28" value="냉장고모델" style="ellipse;whiteSpace=wrap;html=1;" vertex="1" parent="1">
          <mxGeometry x="-352" y="1054" width="98" height="58" as="geometry" />
        </mxCell>
        <mxCell id="mjYtHAVKHYV-V9NppbTY-29" value="가격" style="ellipse;whiteSpace=wrap;html=1;" vertex="1" parent="1">
          <mxGeometry x="505" y="552" width="98" height="58" as="geometry" />
        </mxCell>
        <mxCell id="mjYtHAVKHYV-V9NppbTY-30" value="주문날짜" style="ellipse;whiteSpace=wrap;html=1;" vertex="1" parent="1">
          <mxGeometry x="505" y="643" width="98" height="58" as="geometry" />
        </mxCell>
        <mxCell id="mjYtHAVKHYV-V9NppbTY-31" value="품목명" style="ellipse;whiteSpace=wrap;html=1;" vertex="1" parent="1">
          <mxGeometry x="505" y="461" width="98" height="58" as="geometry" />
        </mxCell>
        <mxCell id="mjYtHAVKHYV-V9NppbTY-56" value="주문" style="rhombus;whiteSpace=wrap;html=1;" vertex="1" parent="1">
          <mxGeometry x="67.5" y="552" width="124" height="65" as="geometry" />
        </mxCell>
        <mxCell id="mjYtHAVKHYV-V9NppbTY-57" value="유통기한 조회" style="rhombus;whiteSpace=wrap;html=1;" vertex="1" parent="1">
          <mxGeometry x="67.5" y="868" width="124" height="65" as="geometry" />
        </mxCell>
        <mxCell id="mjYtHAVKHYV-V9NppbTY-58" value="품목 추가" style="rhombus;whiteSpace=wrap;html=1;" vertex="1" parent="1">
          <mxGeometry x="-188.5" y="709.5" width="124" height="65" as="geometry" />
        </mxCell>
        <mxCell id="mjYtHAVKHYV-V9NppbTY-59" value="&amp;lt;&amp;lt;include&amp;gt;&amp;gt;" style="html=1;verticalAlign=bottom;endArrow=open;dashed=1;endSize=8;curved=0;rounded=0;entryX=0;entryY=0.5;entryDx=0;entryDy=0;exitX=1;exitY=0.5;exitDx=0;exitDy=0;" edge="1" parent="1" source="mjYtHAVKHYV-V9NppbTY-17" target="mjYtHAVKHYV-V9NppbTY-13">
          <mxGeometry relative="1" as="geometry">
            <mxPoint x="33" y="389" as="sourcePoint" />
            <mxPoint x="-47" y="389" as="targetPoint" />
          </mxGeometry>
        </mxCell>
        <mxCell id="mjYtHAVKHYV-V9NppbTY-60" value="&amp;lt;&amp;lt;include&amp;gt;&amp;gt;" style="html=1;verticalAlign=bottom;endArrow=open;dashed=1;endSize=8;curved=0;rounded=0;entryX=0;entryY=0.5;entryDx=0;entryDy=0;exitX=0.969;exitY=0.379;exitDx=0;exitDy=0;exitPerimeter=0;" edge="1" parent="1" source="mjYtHAVKHYV-V9NppbTY-18" target="mjYtHAVKHYV-V9NppbTY-13">
          <mxGeometry relative="1" as="geometry">
            <mxPoint x="-244" y="415" as="sourcePoint" />
            <mxPoint x="-169" y="595" as="targetPoint" />
          </mxGeometry>
        </mxCell>
        <mxCell id="mjYtHAVKHYV-V9NppbTY-61" value="&amp;lt;&amp;lt;include&amp;gt;&amp;gt;" style="html=1;verticalAlign=bottom;endArrow=open;dashed=1;endSize=8;curved=0;rounded=0;entryX=0;entryY=0.5;entryDx=0;entryDy=0;exitX=1;exitY=0.5;exitDx=0;exitDy=0;" edge="1" parent="1" source="mjYtHAVKHYV-V9NppbTY-19" target="mjYtHAVKHYV-V9NppbTY-13">
          <mxGeometry relative="1" as="geometry">
            <mxPoint x="-247" y="498" as="sourcePoint" />
            <mxPoint x="-169" y="595" as="targetPoint" />
          </mxGeometry>
        </mxCell>
        <mxCell id="mjYtHAVKHYV-V9NppbTY-62" value="&amp;lt;&amp;lt;include&amp;gt;&amp;gt;" style="html=1;verticalAlign=bottom;endArrow=open;dashed=1;endSize=8;curved=0;rounded=0;entryX=0;entryY=0.5;entryDx=0;entryDy=0;exitX=1;exitY=0.5;exitDx=0;exitDy=0;" edge="1" parent="1" source="mjYtHAVKHYV-V9NppbTY-20" target="mjYtHAVKHYV-V9NppbTY-13">
          <mxGeometry relative="1" as="geometry">
            <mxPoint x="-244" y="596" as="sourcePoint" />
            <mxPoint x="-169" y="595" as="targetPoint" />
          </mxGeometry>
        </mxCell>
        <mxCell id="mjYtHAVKHYV-V9NppbTY-63" value="&amp;lt;&amp;lt;include&amp;gt;&amp;gt;" style="html=1;verticalAlign=bottom;endArrow=open;dashed=1;endSize=8;curved=0;rounded=0;entryX=0;entryY=0.5;entryDx=0;entryDy=0;exitX=1;exitY=0.5;exitDx=0;exitDy=0;" edge="1" parent="1" source="mjYtHAVKHYV-V9NppbTY-25" target="mjYtHAVKHYV-V9NppbTY-15">
          <mxGeometry relative="1" as="geometry">
            <mxPoint x="-235" y="808" as="sourcePoint" />
            <mxPoint x="-160" y="716" as="targetPoint" />
          </mxGeometry>
        </mxCell>
        <mxCell id="mjYtHAVKHYV-V9NppbTY-64" value="&amp;lt;&amp;lt;include&amp;gt;&amp;gt;" style="html=1;verticalAlign=bottom;endArrow=open;dashed=1;endSize=8;curved=0;rounded=0;exitX=1;exitY=0.5;exitDx=0;exitDy=0;" edge="1" parent="1" source="mjYtHAVKHYV-V9NppbTY-26" target="mjYtHAVKHYV-V9NppbTY-15">
          <mxGeometry relative="1" as="geometry">
            <mxPoint x="-244" y="821" as="sourcePoint" />
            <mxPoint x="-181" y="901" as="targetPoint" />
          </mxGeometry>
        </mxCell>
        <mxCell id="mjYtHAVKHYV-V9NppbTY-65" value="&amp;lt;&amp;lt;include&amp;gt;&amp;gt;" style="html=1;verticalAlign=bottom;endArrow=open;dashed=1;endSize=8;curved=0;rounded=0;exitX=1;exitY=0.5;exitDx=0;exitDy=0;entryX=0;entryY=0.5;entryDx=0;entryDy=0;" edge="1" parent="1" source="mjYtHAVKHYV-V9NppbTY-27" target="mjYtHAVKHYV-V9NppbTY-15">
          <mxGeometry relative="1" as="geometry">
            <mxPoint x="-244" y="911" as="sourcePoint" />
            <mxPoint x="-169" y="911" as="targetPoint" />
          </mxGeometry>
        </mxCell>
        <mxCell id="mjYtHAVKHYV-V9NppbTY-66" value="&amp;lt;&amp;lt;include&amp;gt;&amp;gt;" style="html=1;verticalAlign=bottom;endArrow=open;dashed=1;endSize=8;curved=0;rounded=0;exitX=1;exitY=0.5;exitDx=0;exitDy=0;entryX=0;entryY=0.5;entryDx=0;entryDy=0;" edge="1" parent="1" source="mjYtHAVKHYV-V9NppbTY-28" target="mjYtHAVKHYV-V9NppbTY-15">
          <mxGeometry relative="1" as="geometry">
            <mxPoint x="-244" y="1002" as="sourcePoint" />
            <mxPoint x="-169" y="911" as="targetPoint" />
          </mxGeometry>
        </mxCell>
        <mxCell id="mjYtHAVKHYV-V9NppbTY-67" value="&amp;lt;&amp;lt;include&amp;gt;&amp;gt;" style="html=1;verticalAlign=bottom;endArrow=open;dashed=1;endSize=8;curved=0;rounded=0;exitX=0;exitY=0.483;exitDx=0;exitDy=0;exitPerimeter=0;entryX=1;entryY=0.5;entryDx=0;entryDy=0;" edge="1" parent="1" source="mjYtHAVKHYV-V9NppbTY-31" target="mjYtHAVKHYV-V9NppbTY-16">
          <mxGeometry relative="1" as="geometry">
            <mxPoint x="351" y="455" as="sourcePoint" />
            <mxPoint x="336" y="371" as="targetPoint" />
          </mxGeometry>
        </mxCell>
        <mxCell id="mjYtHAVKHYV-V9NppbTY-68" value="&amp;lt;&amp;lt;include&amp;gt;&amp;gt;" style="html=1;verticalAlign=bottom;endArrow=open;dashed=1;endSize=8;curved=0;rounded=0;exitX=0;exitY=0.5;exitDx=0;exitDy=0;entryX=1;entryY=0.5;entryDx=0;entryDy=0;" edge="1" parent="1" source="mjYtHAVKHYV-V9NppbTY-29" target="mjYtHAVKHYV-V9NppbTY-16">
          <mxGeometry relative="1" as="geometry">
            <mxPoint x="694" y="613.5" as="sourcePoint" />
            <mxPoint x="770" y="610" as="targetPoint" />
          </mxGeometry>
        </mxCell>
        <mxCell id="mjYtHAVKHYV-V9NppbTY-69" value="&amp;lt;&amp;lt;include&amp;gt;&amp;gt;" style="html=1;verticalAlign=bottom;endArrow=open;dashed=1;endSize=8;curved=0;rounded=0;exitX=0;exitY=0.5;exitDx=0;exitDy=0;entryX=1;entryY=0.5;entryDx=0;entryDy=0;" edge="1" parent="1" source="mjYtHAVKHYV-V9NppbTY-30" target="mjYtHAVKHYV-V9NppbTY-16">
          <mxGeometry relative="1" as="geometry">
            <mxPoint x="361" y="661" as="sourcePoint" />
            <mxPoint x="437" y="748.5" as="targetPoint" />
          </mxGeometry>
        </mxCell>
        <mxCell id="mjYtHAVKHYV-V9NppbTY-70" value="&amp;lt;&amp;lt;include&amp;gt;&amp;gt;" style="html=1;verticalAlign=bottom;endArrow=open;dashed=1;endSize=8;curved=0;rounded=0;exitX=0;exitY=0.5;exitDx=0;exitDy=0;entryX=1;entryY=0.5;entryDx=0;entryDy=0;" edge="1" parent="1" source="mjYtHAVKHYV-V9NppbTY-21" target="mjYtHAVKHYV-V9NppbTY-14">
          <mxGeometry relative="1" as="geometry">
            <mxPoint x="372" y="761" as="sourcePoint" />
            <mxPoint x="448" y="712" as="targetPoint" />
          </mxGeometry>
        </mxCell>
        <mxCell id="mjYtHAVKHYV-V9NppbTY-71" value="&amp;lt;&amp;lt;include&amp;gt;&amp;gt;" style="html=1;verticalAlign=bottom;endArrow=open;dashed=1;endSize=8;curved=0;rounded=0;exitX=0;exitY=0.5;exitDx=0;exitDy=0;entryX=1;entryY=0.5;entryDx=0;entryDy=0;" edge="1" parent="1" source="mjYtHAVKHYV-V9NppbTY-22" target="mjYtHAVKHYV-V9NppbTY-14">
          <mxGeometry relative="1" as="geometry">
            <mxPoint x="434" y="969" as="sourcePoint" />
            <mxPoint x="488" y="896" as="targetPoint" />
          </mxGeometry>
        </mxCell>
        <mxCell id="mjYtHAVKHYV-V9NppbTY-72" value="&amp;lt;&amp;lt;extend&amp;gt;&amp;gt;" style="html=1;verticalAlign=bottom;endArrow=open;dashed=1;endSize=8;curved=0;rounded=0;entryX=0.5;entryY=1;entryDx=0;entryDy=0;exitX=0.5;exitY=1;exitDx=0;exitDy=0;" edge="1" parent="1" source="mjYtHAVKHYV-V9NppbTY-19" target="mjYtHAVKHYV-V9NppbTY-56">
          <mxGeometry relative="1" as="geometry">
            <mxPoint x="-244" y="596" as="sourcePoint" />
            <mxPoint x="-169" y="595" as="targetPoint" />
          </mxGeometry>
        </mxCell>
        <mxCell id="mjYtHAVKHYV-V9NppbTY-73" value="&amp;lt;&amp;lt;extend&amp;gt;&amp;gt;" style="html=1;verticalAlign=bottom;endArrow=open;dashed=1;endSize=8;curved=0;rounded=0;entryX=1;entryY=0.5;entryDx=0;entryDy=0;exitX=0.5;exitY=1;exitDx=0;exitDy=0;" edge="1" parent="1" source="mjYtHAVKHYV-V9NppbTY-22" target="mjYtHAVKHYV-V9NppbTY-57">
          <mxGeometry relative="1" as="geometry">
            <mxPoint x="244" y="1036" as="sourcePoint" />
            <mxPoint x="677" y="1038" as="targetPoint" />
            <Array as="points">
              <mxPoint x="375" y="965" />
            </Array>
          </mxGeometry>
        </mxCell>
        <mxCell id="mjYtHAVKHYV-V9NppbTY-74" value="가격" style="ellipse;whiteSpace=wrap;html=1;" vertex="1" parent="1">
          <mxGeometry x="81.25" y="466" width="98" height="58" as="geometry" />
        </mxCell>
        <mxCell id="mjYtHAVKHYV-V9NppbTY-75" value="주문날짜" style="ellipse;whiteSpace=wrap;html=1;" vertex="1" parent="1">
          <mxGeometry x="196.75" y="466" width="98" height="58" as="geometry" />
        </mxCell>
        <mxCell id="mjYtHAVKHYV-V9NppbTY-76" value="상품명" style="ellipse;whiteSpace=wrap;html=1;" vertex="1" parent="1">
          <mxGeometry x="-35.75" y="466" width="98" height="58" as="geometry" />
        </mxCell>
        <mxCell id="mjYtHAVKHYV-V9NppbTY-77" value="유통기한 정보" style="ellipse;whiteSpace=wrap;html=1;" vertex="1" parent="1">
          <mxGeometry x="81.25" y="964.5" width="98" height="58" as="geometry" />
        </mxCell>
        <mxCell id="mjYtHAVKHYV-V9NppbTY-78" value="재고량" style="ellipse;whiteSpace=wrap;html=1;" vertex="1" parent="1">
          <mxGeometry x="196.75" y="964.5" width="98" height="58" as="geometry" />
        </mxCell>
        <mxCell id="mjYtHAVKHYV-V9NppbTY-79" value="품목명" style="ellipse;whiteSpace=wrap;html=1;" vertex="1" parent="1">
          <mxGeometry x="-35.75" y="964.5" width="98" height="58" as="geometry" />
        </mxCell>
        <mxCell id="mjYtHAVKHYV-V9NppbTY-80" value="" style="shape=link;html=1;rounded=0;exitX=1;exitY=0.5;exitDx=0;exitDy=0;entryX=0;entryY=0.5;entryDx=0;entryDy=0;" edge="1" parent="1" source="mjYtHAVKHYV-V9NppbTY-13" target="mjYtHAVKHYV-V9NppbTY-56">
          <mxGeometry relative="1" as="geometry">
            <mxPoint x="-56" y="584" as="sourcePoint" />
            <mxPoint x="21" y="582" as="targetPoint" />
          </mxGeometry>
        </mxCell>
        <mxCell id="mjYtHAVKHYV-V9NppbTY-81" value="N" style="resizable=0;html=1;whiteSpace=wrap;align=right;verticalAlign=bottom;" connectable="0" vertex="1" parent="mjYtHAVKHYV-V9NppbTY-80">
          <mxGeometry x="1" relative="1" as="geometry" />
        </mxCell>
        <mxCell id="mjYtHAVKHYV-V9NppbTY-86" value="" style="endArrow=none;html=1;rounded=0;entryX=0;entryY=0.5;entryDx=0;entryDy=0;exitX=1;exitY=0.5;exitDx=0;exitDy=0;" edge="1" parent="1" source="mjYtHAVKHYV-V9NppbTY-57" target="mjYtHAVKHYV-V9NppbTY-14">
          <mxGeometry relative="1" as="geometry">
            <mxPoint x="134.75" y="840" as="sourcePoint" />
            <mxPoint x="287" y="806" as="targetPoint" />
          </mxGeometry>
        </mxCell>
        <mxCell id="mjYtHAVKHYV-V9NppbTY-87" value="1" style="resizable=0;html=1;whiteSpace=wrap;align=right;verticalAlign=bottom;" connectable="0" vertex="1" parent="mjYtHAVKHYV-V9NppbTY-86">
          <mxGeometry x="1" relative="1" as="geometry">
            <mxPoint x="-57" as="offset" />
          </mxGeometry>
        </mxCell>
        <mxCell id="mjYtHAVKHYV-V9NppbTY-88" value="" style="endArrow=none;html=1;rounded=0;entryX=0;entryY=0.5;entryDx=0;entryDy=0;exitX=1;exitY=0.5;exitDx=0;exitDy=0;" edge="1" parent="1" source="mjYtHAVKHYV-V9NppbTY-56" target="mjYtHAVKHYV-V9NppbTY-16">
          <mxGeometry relative="1" as="geometry">
            <mxPoint x="213" y="648" as="sourcePoint" />
            <mxPoint x="345" y="648" as="targetPoint" />
          </mxGeometry>
        </mxCell>
        <mxCell id="mjYtHAVKHYV-V9NppbTY-89" value="1" style="resizable=0;html=1;whiteSpace=wrap;align=right;verticalAlign=bottom;" connectable="0" vertex="1" parent="mjYtHAVKHYV-V9NppbTY-88">
          <mxGeometry x="1" relative="1" as="geometry">
            <mxPoint x="-57" as="offset" />
          </mxGeometry>
        </mxCell>
        <mxCell id="mjYtHAVKHYV-V9NppbTY-90" value="" style="shape=link;html=1;rounded=0;exitX=0.5;exitY=1;exitDx=0;exitDy=0;entryX=0.5;entryY=0;entryDx=0;entryDy=0;" edge="1" parent="1" source="mjYtHAVKHYV-V9NppbTY-13" target="mjYtHAVKHYV-V9NppbTY-58">
          <mxGeometry relative="1" as="geometry">
            <mxPoint x="-64" y="595" as="sourcePoint" />
            <mxPoint x="78" y="595" as="targetPoint" />
          </mxGeometry>
        </mxCell>
        <mxCell id="mjYtHAVKHYV-V9NppbTY-91" value="N" style="resizable=0;html=1;whiteSpace=wrap;align=right;verticalAlign=bottom;" connectable="0" vertex="1" parent="mjYtHAVKHYV-V9NppbTY-90">
          <mxGeometry x="1" relative="1" as="geometry" />
        </mxCell>
        <mxCell id="mjYtHAVKHYV-V9NppbTY-94" value="" style="endArrow=none;html=1;rounded=0;entryX=0;entryY=0.517;entryDx=0;entryDy=0;entryPerimeter=0;exitX=0;exitY=0.5;exitDx=0;exitDy=0;" edge="1" parent="1" source="mjYtHAVKHYV-V9NppbTY-25" target="mjYtHAVKHYV-V9NppbTY-17">
          <mxGeometry width="50" height="50" relative="1" as="geometry">
            <mxPoint x="-459" y="466" as="sourcePoint" />
            <mxPoint x="-409" y="416" as="targetPoint" />
            <Array as="points">
              <mxPoint x="-400" y="811" />
              <mxPoint x="-404" y="406" />
            </Array>
          </mxGeometry>
        </mxCell>
        <mxCell id="mjYtHAVKHYV-V9NppbTY-95" value="&amp;lt;&amp;lt;include&amp;gt;&amp;gt;" style="html=1;verticalAlign=bottom;endArrow=open;dashed=1;endSize=8;curved=0;rounded=0;entryX=0.5;entryY=1;entryDx=0;entryDy=0;exitX=0.5;exitY=0;exitDx=0;exitDy=0;" edge="1" parent="1" source="mjYtHAVKHYV-V9NppbTY-79" target="mjYtHAVKHYV-V9NppbTY-57">
          <mxGeometry relative="1" as="geometry">
            <mxPoint x="-85" y="821" as="sourcePoint" />
            <mxPoint x="-10" y="911" as="targetPoint" />
          </mxGeometry>
        </mxCell>
        <mxCell id="mjYtHAVKHYV-V9NppbTY-96" value="&amp;lt;&amp;lt;include&amp;gt;&amp;gt;" style="html=1;verticalAlign=bottom;endArrow=open;dashed=1;endSize=8;curved=0;rounded=0;exitX=0.5;exitY=0;exitDx=0;exitDy=0;entryX=0.5;entryY=1;entryDx=0;entryDy=0;" edge="1" parent="1" source="mjYtHAVKHYV-V9NppbTY-77" target="mjYtHAVKHYV-V9NppbTY-57">
          <mxGeometry relative="1" as="geometry">
            <mxPoint x="23" y="975" as="sourcePoint" />
            <mxPoint x="140" y="943" as="targetPoint" />
          </mxGeometry>
        </mxCell>
        <mxCell id="mjYtHAVKHYV-V9NppbTY-97" value="&amp;lt;&amp;lt;include&amp;gt;&amp;gt;" style="html=1;verticalAlign=bottom;endArrow=open;dashed=1;endSize=8;curved=0;rounded=0;exitX=0.5;exitY=0;exitDx=0;exitDy=0;entryX=0.5;entryY=1;entryDx=0;entryDy=0;" edge="1" parent="1" source="mjYtHAVKHYV-V9NppbTY-78" target="mjYtHAVKHYV-V9NppbTY-57">
          <mxGeometry relative="1" as="geometry">
            <mxPoint x="190" y="975" as="sourcePoint" />
            <mxPoint x="190" y="943" as="targetPoint" />
          </mxGeometry>
        </mxCell>
        <mxCell id="mjYtHAVKHYV-V9NppbTY-98" value="&amp;lt;&amp;lt;include&amp;gt;&amp;gt;" style="html=1;verticalAlign=bottom;endArrow=open;dashed=1;endSize=8;curved=0;rounded=0;exitX=0.5;exitY=1;exitDx=0;exitDy=0;" edge="1" parent="1" source="mjYtHAVKHYV-V9NppbTY-74" target="mjYtHAVKHYV-V9NppbTY-56">
          <mxGeometry relative="1" as="geometry">
            <mxPoint x="111" y="673" as="sourcePoint" />
            <mxPoint x="-5" y="641" as="targetPoint" />
          </mxGeometry>
        </mxCell>
        <mxCell id="mjYtHAVKHYV-V9NppbTY-99" value="&amp;lt;&amp;lt;include&amp;gt;&amp;gt;" style="html=1;verticalAlign=bottom;endArrow=open;dashed=1;endSize=8;curved=0;rounded=0;exitX=0.5;exitY=1;exitDx=0;exitDy=0;entryX=0.5;entryY=0;entryDx=0;entryDy=0;" edge="1" parent="1" source="mjYtHAVKHYV-V9NppbTY-75" target="mjYtHAVKHYV-V9NppbTY-56">
          <mxGeometry relative="1" as="geometry">
            <mxPoint x="181" y="534" as="sourcePoint" />
            <mxPoint x="181" y="562" as="targetPoint" />
          </mxGeometry>
        </mxCell>
        <mxCell id="mjYtHAVKHYV-V9NppbTY-100" value="&amp;lt;&amp;lt;include&amp;gt;&amp;gt;" style="html=1;verticalAlign=bottom;endArrow=open;dashed=1;endSize=8;curved=0;rounded=0;exitX=0.5;exitY=1;exitDx=0;exitDy=0;entryX=0.5;entryY=0;entryDx=0;entryDy=0;" edge="1" parent="1" source="mjYtHAVKHYV-V9NppbTY-76" target="mjYtHAVKHYV-V9NppbTY-56">
          <mxGeometry relative="1" as="geometry">
            <mxPoint x="256" y="534" as="sourcePoint" />
            <mxPoint x="140" y="562" as="targetPoint" />
          </mxGeometry>
        </mxCell>
        <mxCell id="mjYtHAVKHYV-V9NppbTY-101" value="&amp;lt;&amp;lt;extend&amp;gt;&amp;gt;" style="html=1;verticalAlign=bottom;endArrow=open;dashed=1;endSize=8;curved=0;rounded=0;entryX=0;entryY=0.5;entryDx=0;entryDy=0;" edge="1" parent="1" target="mjYtHAVKHYV-V9NppbTY-57">
          <mxGeometry relative="1" as="geometry">
            <mxPoint x="-252" y="1081" as="sourcePoint" />
            <mxPoint x="-169" y="911" as="targetPoint" />
            <Array as="points">
              <mxPoint x="-81" y="1081" />
              <mxPoint x="-38" y="901" />
            </Array>
          </mxGeometry>
        </mxCell>
        <mxCell id="mjYtHAVKHYV-V9NppbTY-103" value="" style="endArrow=none;html=1;rounded=0;exitX=0.5;exitY=0;exitDx=0;exitDy=0;entryX=1;entryY=0.5;entryDx=0;entryDy=0;" edge="1" parent="1" source="mjYtHAVKHYV-V9NppbTY-74" target="mjYtHAVKHYV-V9NppbTY-29">
          <mxGeometry width="50" height="50" relative="1" as="geometry">
            <mxPoint x="55.99600000000008" y="403" as="sourcePoint" />
            <mxPoint x="130" y="305" as="targetPoint" />
            <Array as="points">
              <mxPoint x="130" y="435" />
              <mxPoint x="399" y="435" />
              <mxPoint x="634" y="435" />
              <mxPoint x="636" y="581" />
            </Array>
          </mxGeometry>
        </mxCell>
        <mxCell id="mjYtHAVKHYV-V9NppbTY-105" value="" style="endArrow=none;html=1;rounded=0;exitX=0.5;exitY=1;exitDx=0;exitDy=0;entryX=1;entryY=0.5;entryDx=0;entryDy=0;" edge="1" parent="1" source="mjYtHAVKHYV-V9NppbTY-77" target="mjYtHAVKHYV-V9NppbTY-22">
          <mxGeometry width="50" height="50" relative="1" as="geometry">
            <mxPoint x="157" y="1104" as="sourcePoint" />
            <mxPoint x="207" y="1054" as="targetPoint" />
            <Array as="points">
              <mxPoint x="130" y="1046" />
              <mxPoint x="633" y="1043" />
              <mxPoint x="633" y="936" />
            </Array>
          </mxGeometry>
        </mxCell>
        <mxCell id="mjYtHAVKHYV-V9NppbTY-106" value="가격" style="ellipse;whiteSpace=wrap;html=1;" vertex="1" parent="1">
          <mxGeometry x="-130" y="774.5" width="98" height="58" as="geometry" />
        </mxCell>
        <mxCell id="mjYtHAVKHYV-V9NppbTY-107" value="주문날짜" style="ellipse;whiteSpace=wrap;html=1;" vertex="1" parent="1">
          <mxGeometry x="-23" y="774.5" width="98" height="58" as="geometry" />
        </mxCell>
        <mxCell id="mjYtHAVKHYV-V9NppbTY-108" value="품목명" style="ellipse;whiteSpace=wrap;html=1;" vertex="1" parent="1">
          <mxGeometry x="-237" y="774.5" width="98" height="58" as="geometry" />
        </mxCell>
        <mxCell id="mjYtHAVKHYV-V9NppbTY-109" value="&amp;lt;&amp;lt;include&amp;gt;&amp;gt;" style="html=1;verticalAlign=bottom;endArrow=open;dashed=1;endSize=8;curved=0;rounded=0;exitX=0.5;exitY=0;exitDx=0;exitDy=0;entryX=0.5;entryY=1;entryDx=0;entryDy=0;" edge="1" parent="1" source="mjYtHAVKHYV-V9NppbTY-108" target="mjYtHAVKHYV-V9NppbTY-58">
          <mxGeometry relative="1" as="geometry">
            <mxPoint x="-137.5" y="611" as="sourcePoint" />
            <mxPoint x="-76" y="682" as="targetPoint" />
          </mxGeometry>
        </mxCell>
        <mxCell id="mjYtHAVKHYV-V9NppbTY-110" value="&amp;lt;&amp;lt;include&amp;gt;&amp;gt;" style="html=1;verticalAlign=bottom;endArrow=open;dashed=1;endSize=8;curved=0;rounded=0;exitX=0.5;exitY=0;exitDx=0;exitDy=0;entryX=0.5;entryY=1;entryDx=0;entryDy=0;" edge="1" parent="1" source="mjYtHAVKHYV-V9NppbTY-106" target="mjYtHAVKHYV-V9NppbTY-58">
          <mxGeometry relative="1" as="geometry">
            <mxPoint x="205.5" y="769.5" as="sourcePoint" />
            <mxPoint x="-59.5" y="741" as="targetPoint" />
          </mxGeometry>
        </mxCell>
        <mxCell id="mjYtHAVKHYV-V9NppbTY-111" value="&amp;lt;&amp;lt;include&amp;gt;&amp;gt;" style="html=1;verticalAlign=bottom;endArrow=open;dashed=1;endSize=8;curved=0;rounded=0;exitX=0.5;exitY=0;exitDx=0;exitDy=0;entryX=0.5;entryY=1;entryDx=0;entryDy=0;" edge="1" parent="1" source="mjYtHAVKHYV-V9NppbTY-107" target="mjYtHAVKHYV-V9NppbTY-58">
          <mxGeometry relative="1" as="geometry">
            <mxPoint x="-127.5" y="817" as="sourcePoint" />
            <mxPoint x="-73" y="805" as="targetPoint" />
          </mxGeometry>
        </mxCell>
        <mxCell id="mjYtHAVKHYV-V9NppbTY-112" value="" style="endArrow=none;html=1;rounded=0;entryX=0;entryY=0.3333333333333333;entryDx=0;entryDy=0;entryPerimeter=0;exitX=1;exitY=0.5;exitDx=0;exitDy=0;" edge="1" parent="1" source="mjYtHAVKHYV-V9NppbTY-58" target="mjYtHAVKHYV-V9NppbTY-1">
          <mxGeometry width="50" height="50" relative="1" as="geometry">
            <mxPoint x="-68" y="785" as="sourcePoint" />
            <mxPoint x="-18" y="735" as="targetPoint" />
          </mxGeometry>
        </mxCell>
        <mxCell id="mjYtHAVKHYV-V9NppbTY-113" value="" style="endArrow=none;html=1;rounded=0;entryX=0.5;entryY=1;entryDx=0;entryDy=0;exitX=0.5;exitY=0;exitDx=0;exitDy=0;exitPerimeter=0;" edge="1" parent="1" source="mjYtHAVKHYV-V9NppbTY-1" target="mjYtHAVKHYV-V9NppbTY-56">
          <mxGeometry width="50" height="50" relative="1" as="geometry">
            <mxPoint x="-54" y="752" as="sourcePoint" />
            <mxPoint x="131" y="748" as="targetPoint" />
          </mxGeometry>
        </mxCell>
        <mxCell id="mjYtHAVKHYV-V9NppbTY-114" value="" style="endArrow=none;html=1;rounded=0;exitX=0.5;exitY=0;exitDx=0;exitDy=0;" edge="1" parent="1" source="mjYtHAVKHYV-V9NppbTY-57" target="mjYtHAVKHYV-V9NppbTY-1">
          <mxGeometry width="50" height="50" relative="1" as="geometry">
            <mxPoint x="146" y="728" as="sourcePoint" />
            <mxPoint x="140" y="627" as="targetPoint" />
          </mxGeometry>
        </mxCell>
      </root>
    </mxGraphModel>
  </diagram>
</mxfile>
